<svg id="visual" viewBox="0 0 900 600" width="900" height="600" xmlns="http://www.w3.org/2000/svg" xmlns:xlink="http://www.w3.org/1999/xlink" version="1.1"><g stroke-width="1" stroke-linejoin="bevel"><path d="M506.3 252L375.7 252L508.3 353Z" fill="#333d44" stroke="#333d44"></path><path d="M375.7 252L381.7 375L508.3 353Z" fill="#444d54" stroke="#444d54"></path><path d="M256.1 355L373.7 472L381.7 375Z" fill="#4c555d" stroke="#4c555d"></path><path d="M381.7 375L528.3 470L508.3 353Z" fill="#0e171d" stroke="#0e171d"></path><path d="M373.7 472L528.3 470L381.7 375Z" fill="#2c353c" stroke="#2c353c"></path><path d="M508.3 353L627.9 231L506.3 252Z" fill="#020e16" stroke="#020e16"></path><path d="M375.7 252L256.1 355L381.7 375Z" fill="#2c353c" stroke="#2c353c"></path><path d="M506.3 252L383.7 118L375.7 252Z" fill="#020e16" stroke="#020e16"></path><path d="M375.7 252L243.1 225L256.1 355Z" fill="#1d252c" stroke="#1d252c"></path><path d="M627.9 231L507.3 115L506.3 252Z" fill="#444d54" stroke="#444d54"></path><path d="M506.3 252L507.3 115L383.7 118Z" fill="#0e171d" stroke="#0e171d"></path><path d="M652.9 353L627.9 231L508.3 353Z" fill="#444d54" stroke="#444d54"></path><path d="M268.1 124L243.1 225L375.7 252Z" fill="#333d44" stroke="#333d44"></path><path d="M635.9 464L652.9 353L508.3 353Z" fill="#151e25" stroke="#151e25"></path><path d="M383.7 118L268.1 124L375.7 252Z" fill="#151e25" stroke="#151e25"></path><path d="M528.3 470L635.9 464L508.3 353Z" fill="#3c454c" stroke="#3c454c"></path><path d="M112.6 369L243.1 468L256.1 355Z" fill="#1d252c" stroke="#1d252c"></path><path d="M256.1 355L243.1 468L373.7 472Z" fill="#333d44" stroke="#333d44"></path><path d="M627.9 231L626.9 113L507.3 115Z" fill="#000000" stroke="#000000"></path><path d="M770.4 133L626.9 113L627.9 231Z" fill="#000000" stroke="#000000"></path><path d="M255.1 600L372.7 600L373.7 472Z" fill="#020e16" stroke="#020e16"></path><path d="M373.7 472L524.3 600L528.3 470Z" fill="#0e171d" stroke="#0e171d"></path><path d="M528.3 470L524.3 600L635.9 464Z" fill="#444d54" stroke="#444d54"></path><path d="M372.7 600L524.3 600L373.7 472Z" fill="#242d34" stroke="#242d34"></path><path d="M507.3 115L369.7 0L383.7 118Z" fill="#333d44" stroke="#333d44"></path><path d="M383.7 118L369.7 0L268.1 124Z" fill="#000000" stroke="#000000"></path><path d="M527.3 0L369.7 0L507.3 115Z" fill="#444d54" stroke="#444d54"></path><path d="M626.9 113L527.3 0L507.3 115Z" fill="#000000" stroke="#000000"></path><path d="M126.6 132L113.6 254L243.1 225Z" fill="#242d34" stroke="#242d34"></path><path d="M243.1 225L113.6 254L256.1 355Z" fill="#242d34" stroke="#242d34"></path><path d="M126.6 132L243.1 225L268.1 124Z" fill="#3c454c" stroke="#3c454c"></path><path d="M113.6 254L112.6 369L256.1 355Z" fill="#2c353c" stroke="#2c353c"></path><path d="M243.1 468L255.1 600L373.7 472Z" fill="#020e16" stroke="#020e16"></path><path d="M783.4 366L778.4 237L652.9 353Z" fill="#3c454c" stroke="#3c454c"></path><path d="M652.9 353L778.4 237L627.9 231Z" fill="#333d44" stroke="#333d44"></path><path d="M626.9 113L644.9 0L527.3 0Z" fill="#1d252c" stroke="#1d252c"></path><path d="M760.4 490L783.4 366L652.9 353Z" fill="#1d252c" stroke="#1d252c"></path><path d="M760.4 490L652.9 353L635.9 464Z" fill="#000000" stroke="#000000"></path><path d="M131.6 476L255.1 600L243.1 468Z" fill="#1d252c" stroke="#1d252c"></path><path d="M112.6 369L131.6 476L243.1 468Z" fill="#1d252c" stroke="#1d252c"></path><path d="M247.1 0L126.6 132L268.1 124Z" fill="#1d252c" stroke="#1d252c"></path><path d="M369.7 0L247.1 0L268.1 124Z" fill="#242d34" stroke="#242d34"></path><path d="M524.3 600L647.9 600L635.9 464Z" fill="#000000" stroke="#000000"></path><path d="M766.4 0L644.9 0L626.9 113Z" fill="#0e171d" stroke="#0e171d"></path><path d="M647.9 600L760.4 490L635.9 464Z" fill="#0e171d" stroke="#0e171d"></path><path d="M778.4 237L770.4 133L627.9 231Z" fill="#1d252c" stroke="#1d252c"></path><path d="M0 476L127.6 600L131.6 476Z" fill="#3c454c" stroke="#3c454c"></path><path d="M131.6 476L127.6 600L255.1 600Z" fill="#1d252c" stroke="#1d252c"></path><path d="M247.1 0L120.6 0L126.6 132Z" fill="#242d34" stroke="#242d34"></path><path d="M0 251L0 350L113.6 254Z" fill="#1d252c" stroke="#1d252c"></path><path d="M113.6 254L0 350L112.6 369Z" fill="#4c555d" stroke="#4c555d"></path><path d="M112.6 369L0 476L131.6 476Z" fill="#1d252c" stroke="#1d252c"></path><path d="M0 251L113.6 254L126.6 132Z" fill="#000000" stroke="#000000"></path><path d="M0 120L0 251L126.6 132Z" fill="#1d252c" stroke="#1d252c"></path><path d="M900 125L766.4 0L770.4 133Z" fill="#242d34" stroke="#242d34"></path><path d="M770.4 133L766.4 0L626.9 113Z" fill="#444d54" stroke="#444d54"></path><path d="M647.9 600L780.4 600L760.4 490Z" fill="#000000" stroke="#000000"></path><path d="M900 491L900 349L783.4 366Z" fill="#444d54" stroke="#444d54"></path><path d="M783.4 366L900 349L778.4 237Z" fill="#1d252c" stroke="#1d252c"></path><path d="M778.4 237L900 231L770.4 133Z" fill="#242d34" stroke="#242d34"></path><path d="M900 491L783.4 366L760.4 490Z" fill="#151e25" stroke="#151e25"></path><path d="M900 349L900 231L778.4 237Z" fill="#242d34" stroke="#242d34"></path><path d="M0 350L0 476L112.6 369Z" fill="#444d54" stroke="#444d54"></path><path d="M120.6 0L0 120L126.6 132Z" fill="#3c454c" stroke="#3c454c"></path><path d="M900 231L900 125L770.4 133Z" fill="#444d54" stroke="#444d54"></path><path d="M780.4 600L900 491L760.4 490Z" fill="#242d34" stroke="#242d34"></path><path d="M0 476L0 600L127.6 600Z" fill="#3c454c" stroke="#3c454c"></path><path d="M120.6 0L0 0L0 120Z" fill="#1d252c" stroke="#1d252c"></path><path d="M780.4 600L900 600L900 491Z" fill="#333d44" stroke="#333d44"></path><path d="M900 125L900 0L766.4 0Z" fill="#333d44" stroke="#333d44"></path></g></svg>